<svg xmlns="http://www.w3.org/2000/svg" width="269.324" height="48.792" viewBox="0 0 269.324 48.792"><path fill="#A6A8AB" d="M21.599 40.248v-2.303c-2.24 1.855-5.136 2.783-8.688 2.783-4.032 0-7.232-1.248-9.6-3.744-2.208-2.303-3.312-5.264-3.312-8.879 0-3.712 1.12-6.721 3.36-9.025 2.368-2.496 5.616-3.744 9.744-3.744 3.392 0 6.224.896 8.496 2.688v-10.368h4.608v32.591h-4.608zm-2.232-18.432c-1.488-1.536-3.656-2.305-6.504-2.305-2.592 0-4.616.809-6.072 2.425-1.457 1.616-2.184 3.672-2.184 6.168s.688 4.496 2.064 6c1.471 1.631 3.535 2.447 6.192 2.447 2.656 0 4.776-.799 6.36-2.4 1.584-1.6 2.376-3.615 2.376-6.047 0-2.655-.744-4.751-2.232-6.288zM32.111 30.312c.544 4.225 3.36 6.336 8.448 6.336 4.159 0 6.96-1.744 8.4-5.232h4.752c-1.344 3.873-3.248 6.434-5.712 7.682-2.145 1.088-4.656 1.631-7.536 1.631-4.256 0-7.52-1.135-9.792-3.408-2.176-2.143-3.264-5.07-3.264-8.783 0-3.553 1.2-6.497 3.6-8.833 2.4-2.335 5.632-3.504 9.696-3.504 3.967 0 7.167 1.04 9.6 3.12 2.432 2.08 3.648 4.864 3.648 8.351v2.594l-21.84.046zm14.736-7.968c-1.472-1.375-3.521-2.063-6.144-2.063-2.625 0-4.688.688-6.192 2.063-1.152 1.057-1.904 2.353-2.256 3.888h16.704c-.288-1.536-.992-2.832-2.112-3.888z" enable-background="new"/><g enable-background="new" fill="#A6A8AB"><path d="M74.399 40.201v-15.026c0-3.263-2.112-4.895-6.336-4.895-2.4 0-4.265.632-5.592 1.896-1.328 1.265-1.992 2.921-1.992 4.968v13.057h-4.608v-23.52h4.608v1.584c2.016-1.376 4.527-2.064 7.536-2.064 3.072 0 5.6.672 7.584 2.016 2.272 1.536 3.408 3.713 3.408 6.528v15.457h-4.608zM98.926 39.433c-1.792.928-4.096 1.391-6.912 1.391-7.841 0-11.76-3.615-11.76-10.848h4.704c0 2.496.528 4.232 1.584 5.209s2.896 1.463 5.52 1.463c4 0 6-1.023 6-3.072 0-1.248-1.312-2.143-3.936-2.688l-4.8-.672c-5.376-.768-8.064-3.023-8.064-6.768 0-2.432 1.12-4.304 3.36-5.616 1.855-1.119 4.048-1.68 6.576-1.68 7.584 0 11.392 3.296 11.424 9.888h-4.752c0-2.144-.473-3.631-1.416-4.464-.944-.832-2.616-1.248-5.016-1.248-1.601 0-2.912.288-3.936.864-1.024.576-1.536 1.328-1.536 2.256 0 1.185 1.264 1.985 3.792 2.401.832.16 2.512.447 5.04.863 5.312.832 7.968 3.119 7.968 6.863.001 2.626-1.28 4.577-3.84 5.858zM122.926 40.201v-15.6c0-3.392-2.112-5.089-6.336-5.089-2.4 0-4.265.656-5.592 1.969-1.328 1.312-1.992 3.04-1.992 5.183v13.537h-4.608v-32.545h4.608v9.792c2.016-1.408 4.527-2.112 7.536-2.112 3.072 0 5.6.704 7.584 2.112 2.272 1.568 3.408 3.809 3.408 6.72v16.033h-4.608zM131.806 14.232c-1.024 0-1.76-.576-2.208-1.729v-3.551c.544-1.152 1.28-1.728 2.208-1.728.736 0 1.536.496 2.4 1.487v4.08c-.832.961-1.632 1.441-2.4 1.441zm-2.208 25.969v-24.385h4.608v24.384h-4.608z"/></g><path fill="#58595B" d="M170.637 40.201v-15.026c0-1.727-.408-2.975-1.224-3.743-.816-.769-2.137-1.152-3.961-1.152-2.048 0-3.641.496-4.775 1.488-1.137.992-1.704 2.32-1.704 3.983v14.449h-4.608v-15.025c0-1.727-.424-2.975-1.271-3.743-.849-.769-2.201-1.152-4.057-1.152-2.048 0-3.647.688-4.799 2.063-1.057 1.248-1.584 2.849-1.584 4.8v13.057h-4.609v-23.52h4.609v1.439c1.887-1.279 4.176-1.92 6.863-1.92 3.264 0 5.791 1.008 7.584 3.024 1.855-2.017 4.607-3.024 8.256-3.024 3.168 0 5.607.729 7.32 2.184 1.711 1.457 2.568 3.576 2.568 6.36v15.457h-4.608zM182.06 30.312c.544 4.225 3.359 6.336 8.448 6.336 4.159 0 6.96-1.744 8.399-5.232h4.752c-1.344 3.873-3.248 6.434-5.711 7.682-2.145 1.088-4.656 1.631-7.537 1.631-4.256 0-7.52-1.135-9.791-3.408-2.177-2.143-3.265-5.07-3.265-8.783 0-3.553 1.2-6.497 3.601-8.833 2.399-2.335 5.631-3.504 9.695-3.504 3.968 0 7.168 1.04 9.6 3.12s3.648 4.864 3.648 8.351v2.594l-21.839.046zm14.736-7.968c-1.473-1.375-3.521-2.063-6.145-2.063-2.624 0-4.688.688-6.191 2.063-1.152 1.057-1.904 2.353-2.256 3.888h16.703c-.286-1.536-.991-2.832-2.111-3.888zM227.18 40.248v-2.303c-2.24 1.855-5.136 2.783-8.688 2.783-4.031 0-7.232-1.248-9.6-3.744-2.208-2.303-3.312-5.264-3.312-8.879 0-3.712 1.121-6.721 3.361-9.025 2.367-2.496 5.615-3.744 9.743-3.744 3.392 0 6.224.896 8.496 2.688v-10.368h4.608v32.591h-4.608zm-2.231-18.432c-1.488-1.536-3.656-2.305-6.504-2.305-2.593 0-4.617.809-6.072 2.425-1.457 1.616-2.185 3.672-2.185 6.168s.688 4.496 2.064 6c1.472 1.631 3.535 2.447 6.192 2.447 2.655 0 4.775-.799 6.359-2.4 1.584-1.6 2.376-3.615 2.376-6.047.001-2.655-.743-4.751-2.23-6.288zM236.779 14.232c-1.024 0-1.76-.576-2.208-1.729v-3.551c.544-1.152 1.28-1.728 2.208-1.728.736 0 1.536.496 2.4 1.487v4.08c-.832.961-1.633 1.441-2.4 1.441zm-2.208 25.969v-24.385h4.608v24.384h-4.608zM262.94 40.248v-2.207c-2.24 1.793-5.136 2.688-8.688 2.688-4.031 0-7.232-1.199-9.6-3.6-2.208-2.24-3.312-5.104-3.312-8.592 0-3.584 1.121-6.497 3.361-8.737 2.399-2.399 5.646-3.6 9.743-3.6 3.392 0 6.224.864 8.496 2.592v-2.496h4.608v23.952h-4.608zm-2.232-17.76c-1.488-1.472-3.656-2.208-6.504-2.208-2.625 0-4.689.8-6.192 2.4-1.376 1.504-2.064 3.456-2.064 5.856s.688 4.32 2.064 5.76c1.472 1.568 3.535 2.352 6.192 2.352 2.655 0 4.775-.768 6.359-2.305 1.584-1.535 2.376-3.471 2.376-5.807.001-2.56-.743-4.576-2.231-6.048z" enable-background="new"/></svg>